<svg id="Layer_2" data-name="Layer 2" xmlns="http://www.w3.org/2000/svg" viewBox="0 0 352.12 137.36"><defs><style>.cls-1{fill:#fff;}</style></defs><title>vazum-logo</title><path class="cls-1" d="M280.3,0h26.06L316,37.53l.6,0C319.76,25.13,323,12.69,326.19.08h25.93V63.83H336.38V17.12l-.72-.12c-4,15.56-8,31.12-12,46.85H308.8c-4-15.54-8-31.22-12-46.9l-.52.1V63.83h-16Z" transform="translate(0 0.15)"/><path class="cls-1" d="M225.82.1c0,1.91,0,3.61,0,5.31,0,11.54,0,23.08.12,34.62.09,6.39,4.37,10.19,11,10.16,6.36,0,10.48-3.93,10.54-10.34.13-12.22.1-24.45.13-36.67V.05h19.86V2.47c0,12.31.1,24.62,0,36.93-.08,7.36-2.49,13.86-7.95,19.08a23.21,23.21,0,0,1-15.79,6.41,104.44,104.44,0,0,1-19.37-1c-9.43-1.54-16.38-9.74-17.8-20A81.24,81.24,0,0,1,206,33.33c-.06-11,0-22,0-33.23Z" transform="translate(0 0.15)"/><path class="cls-1" d="M134.15,64c-6.64,0-13.1,0-19.57-.06-.5,0-1.24-.79-1.43-1.37-.83-2.41-1.53-4.87-2.2-7.34a2.2,2.2,0,0,0-2.54-1.85c-6.23.09-12.47.07-18.71,0a2,2,0,0,0-2.35,1.72c-.8,3-1.78,5.84-2.69,8.8H64.38C67,56.85,69.6,49.92,72.2,43,77.27,29.53,82.42,16.09,87.39,2.58c.79-2.15,1.8-2.8,4-2.73,5.72.18,11.45.09,17.17,0A2.16,2.16,0,0,1,111,1.49q11.34,30.54,22.79,61A14.86,14.86,0,0,1,134.15,64ZM106.09,39.44c-2.29-7.55-4.48-14.73-6.66-21.91l-.59,0C96.65,24.8,94.45,32,92.2,39.44Z" transform="translate(0 0.15)"/><path class="cls-1" d="M139.42,0h55.85c0,4.14.07,8.2-.06,12.26,0,.69-.81,1.43-1.38,2Q177.42,31.41,161,48.49c-.39.41-.73.87-1.35,1.62h36.83V63.88H135.7c0-4.3,0-8.63.06-13,0-.6.8-1.24,1.32-1.78Q153.52,32.07,170,15c.24-.24.43-.52,1-1.19H139.42Z" transform="translate(0 0.15)"/><path class="cls-1" d="M45.77,64c-6.86,0-13.61.06-20.35-.1-.7,0-1.69-1.2-2-2q-9.07-23.76-18-47.58C3.63,9.62,1.88,4.93,0-.08c6.78,0,13.17-.07,19.56.09.66,0,1.6,1.3,1.87,2.16C25.69,15.56,29.86,29,34.06,42.41c.26.85.59,1.69,1.15,3.26,1.81-5.8,3.41-10.87,5-16C43,20.6,45.82,11.49,48.55,2.35,49.1.51,49.91-.2,51.92-.14c5.78.15,11.56.05,17.66.05Z" transform="translate(0 0.15)"/><path class="cls-1" d="M157.24,137.2c1.74-5.06,3.21-9.47,4.79-13.85,2.51-6.95,2.53-6.93-3.49-11.07a136.5,136.5,0,0,1-12.2-9.18h8.28c4,0,8-.07,12,.05a2.52,2.52,0,0,0,2.89-2.08c1.95-5.92,4.06-11.78,6.28-18.13.44,1,.76,1.61,1,2.26,1.81,5.33,3.66,10.65,5.37,16a2.36,2.36,0,0,0,2.7,1.94c6.75-.08,13.5,0,20.88,0a20.57,20.57,0,0,1-1.69,1.57c-5,3.5-9.87,7-14.89,10.43-1.39.94-1.69,1.71-1.11,3.32,2.13,5.93,4.08,11.92,6.34,18.59l-7.74-5.25c-3-2-6-4-8.85-6.11a2.74,2.74,0,0,0-3.81,0c-4.55,3.32-9.23,6.47-13.87,9.67C159.42,135.86,158.63,136.32,157.24,137.2Z" transform="translate(0 0.15)"/></svg>