<?xml version="1.0" encoding="utf-8"?>
<!-- Generator: Adobe Illustrator 23.0.6, SVG Export Plug-In . SVG Version: 6.00 Build 0)  -->
<svg version="1.1" id="Layer_1" xmlns="http://www.w3.org/2000/svg" xmlns:xlink="http://www.w3.org/1999/xlink" x="0px" y="0px"
	 viewBox="0 0 72 72" style="enable-background:new 0 0 72 72;" xml:space="preserve">
<style type="text/css">
	.st0{stroke:#FFFFFF;stroke-width:0.5;stroke-miterlimit:10;}
</style>
<title>vazum-logo</title>
<path class="st0" d="M56.4,20.6h5.1l1.9,7.4h0.1c0.6-2.4,1.3-4.9,1.9-7.3h5.1v12.5h-3.1V24l-0.1,0c-0.8,3.1-1.6,6.1-2.4,9.2H62
	c-0.8-3-1.6-6.1-2.4-9.2l-0.1,0v9.2h-3.1L56.4,20.6z"/>
<path class="st0" d="M45.7,20.7c0,0.4,0,0.7,0,1c0,2.3,0,4.5,0,6.8c0,1.3,0.9,2,2.2,2c1.2,0,2.1-0.8,2.1-2c0-2.4,0-4.8,0-7.2v-0.6
	h3.9v0.5c0,2.4,0,4.8,0,7.2c0,1.4-0.5,2.7-1.6,3.7c-0.8,0.8-1.9,1.2-3.1,1.3c-1.3,0.1-2.5,0-3.8-0.2c-1.8-0.3-3.2-1.9-3.5-3.9
	c-0.1-0.7-0.1-1.4-0.1-2.1c0-2.2,0-4.3,0-6.5H45.7z"/>
<path class="st0" d="M27.8,33.2c-1.3,0-2.6,0-3.8,0c-0.1,0-0.2-0.2-0.3-0.3c-0.2-0.5-0.3-1-0.4-1.4c0-0.2-0.3-0.4-0.5-0.4
	c0,0,0,0,0,0c-1.2,0-2.4,0-3.7,0c-0.2,0-0.4,0.1-0.5,0.3c0,0,0,0,0,0c-0.2,0.6-0.3,1.1-0.5,1.7h-4c0.5-1.4,1-2.7,1.5-4.1
	c1-2.6,2-5.3,3-7.9c0.2-0.4,0.4-0.5,0.8-0.5c1.1,0,2.2,0,3.4,0c0.2,0,0.4,0.1,0.5,0.3c1.5,4,3,8,4.5,12C27.7,33,27.7,33.1,27.8,33.2
	z M22.3,28.4c-0.4-1.5-0.9-2.9-1.3-4.3h-0.1c-0.4,1.4-0.9,2.8-1.3,4.3H22.3z"/>
<path class="st0" d="M28.8,20.6h11c0,0.8,0,1.6,0,2.4c0,0.1-0.2,0.3-0.3,0.4c-2.1,2.2-4.3,4.5-6.4,6.7c-0.1,0.1-0.1,0.2-0.3,0.3H40
	v2.7H28.1c0-0.8,0-1.7,0-2.6c0-0.1,0.2-0.2,0.3-0.3c2.1-2.2,4.3-4.5,6.5-6.7c0,0,0.1-0.1,0.2-0.2h-6.2V20.6z"/>
<path class="st0" d="M10.4,33.2c-1.3,0-2.7,0-4,0c-0.1,0-0.3-0.2-0.4-0.4c-1.2-3.1-2.4-6.2-3.5-9.3c-0.4-0.9-0.7-1.8-1.1-2.8
	c1.3,0,2.6,0,3.8,0c0.1,0,0.3,0.3,0.4,0.4c0.8,2.6,1.7,5.3,2.5,7.9c0.1,0.2,0.1,0.3,0.2,0.6c0.4-1.1,0.7-2.1,1-3.1
	c0.5-1.8,1.1-3.6,1.6-5.4c0.1-0.4,0.3-0.5,0.7-0.5c1.1,0,2.3,0,3.5,0L10.4,33.2z"/>
<path class="st0" d="M32.3,47.6c0.3-1,0.6-1.9,0.9-2.7c0.5-1.4,0.5-1.4-0.7-2.2c-0.8-0.6-1.6-1.2-2.4-1.8h1.6c0.8,0,1.6,0,2.4,0
	c0.3,0,0.5-0.1,0.6-0.4c0.4-1.2,0.8-2.3,1.2-3.6c0.1,0.2,0.1,0.3,0.2,0.4c0.4,1,0.7,2.1,1.1,3.1c0,0.3,0.3,0.4,0.5,0.4
	c1.3,0,2.6,0,4.1,0c-0.1,0.1-0.2,0.2-0.3,0.3c-1,0.7-1.9,1.4-2.9,2c-0.3,0.2-0.3,0.3-0.2,0.7c0.4,1.2,0.8,2.3,1.2,3.6l-1.5-1
	c-0.6-0.4-1.2-0.8-1.7-1.2c-0.2-0.2-0.5-0.2-0.7,0c-0.9,0.7-1.8,1.3-2.7,1.9C32.7,47.3,32.6,47.4,32.3,47.6z"/>
</svg>
